<?xml version="1.0" standalone="no"?>
<!DOCTYPE svg PUBLIC "-//W3C//DTD SVG 20010904//EN"
 "http://www.w3.org/TR/2001/REC-SVG-20010904/DTD/svg10.dtd">
<svg version="1.0" xmlns="http://www.w3.org/2000/svg"
 width="512.000000pt" height="512.000000pt" viewBox="0 0 512.000000 512.000000"
 preserveAspectRatio="xMidYMid meet">

<g transform="translate(0.000000,512.000000) scale(0.100000,-0.100000)"
fill="#000000" stroke="none">
<path d="M4203 4785 c-127 -35 -253 -136 -307 -247 l-28 -57 -203 -3 c-223 -3
-229 -5 -279 -72 -21 -27 -21 -37 -24 -857 l-2 -829 -160 0 -160 0 0 -160 0
-160 160 0 160 0 2 -829 c3 -820 3 -830 24 -857 50 -67 56 -69 279 -72 l203
-3 28 -57 c34 -71 132 -171 202 -206 194 -98 418 -62 565 93 186 195 180 491
-12 674 -153 146 -364 177 -553 81 -70 -35 -168 -135 -202 -206 l-28 -58 -94
0 -94 0 0 720 0 720 94 0 94 0 28 -57 c34 -72 132 -172 202 -207 195 -99 418
-62 567 95 177 186 177 472 0 658 -149 157 -372 194 -567 95 -70 -35 -168
-135 -202 -206 l-28 -58 -94 0 -94 0 0 720 0 720 94 0 94 0 28 -57 c34 -72
132 -172 202 -207 28 -14 77 -33 109 -41 268 -70 546 120 586 401 48 330 -270
615 -590 529z"/>
<path d="M1020 3605 c-300 -129 -561 -242 -579 -251 l-35 -16 598 -265 597
-266 594 264 c327 145 591 267 587 271 -4 4 -259 115 -567 248 -375 162 -575
244 -605 246 -41 4 -95 -17 -590 -231z"/>
<path d="M320 2545 c0 -704 -1 -695 51 -741 19 -18 351 -169 1097 -500 l52
-24 -2 696 -3 695 -595 265 c-327 145 -596 264 -597 264 -2 0 -3 -295 -3 -655z"/>
<path d="M2278 2933 l-598 -265 0 -694 0 -693 43 18 c377 162 1088 489 1110
509 15 14 32 42 38 62 6 23 9 262 7 682 l-3 647 -597 -266z"/>
</g>
</svg>
