<?xml version="1.0" standalone="no"?>
<!DOCTYPE svg PUBLIC "-//W3C//DTD SVG 20010904//EN"
 "http://www.w3.org/TR/2001/REC-SVG-20010904/DTD/svg10.dtd">
<svg version="1.0" xmlns="http://www.w3.org/2000/svg"
 width="512.000000pt" height="512.000000pt" viewBox="0 0 512.000000 512.000000"
 preserveAspectRatio="xMidYMid meet">

<g transform="translate(0.000000,512.000000) scale(0.100000,-0.100000)"
fill="#000000" stroke="none">
<path d="M1389 4392 c-536 -224 -988 -415 -1002 -425 -15 -9 -36 -35 -47 -57
-20 -39 -20 -56 -20 -1269 0 -847 3 -1238 11 -1258 6 -15 20 -39 32 -52 12
-13 466 -245 1010 -517 763 -382 996 -494 1025 -494 28 -1 115 38 374 167
l337 167 63 -60 c276 -263 647 -342 1001 -214 128 47 238 119 347 230 178 180
272 393 274 627 1 110 -7 132 -68 177 -39 29 -133 29 -172 0 -54 -40 -66 -67
-75 -166 -17 -179 -73 -302 -195 -423 -305 -305 -819 -219 -1014 170 -124 246
-78 537 115 730 119 119 246 177 419 193 104 10 130 22 170 76 29 39 29 133 0
172 -45 61 -67 69 -177 68 -235 -2 -452 -98 -633 -278 -99 -100 -166 -200
-213 -317 -53 -132 -65 -199 -65 -359 -1 -146 0 -150 50 -327 5 -20 -11 -30
-185 -117 l-191 -96 0 1097 1 1098 797 331 797 331 5 -708 c5 -695 5 -708 26
-735 39 -53 71 -69 134 -69 63 0 95 16 134 69 21 27 21 37 24 864 3 927 5 896
-61 946 -51 38 -1977 836 -2018 836 -22 0 -383 -146 -1010 -408z m1764 -239
c405 -169 737 -310 737 -313 0 -8 -1471 -620 -1490 -620 -19 0 -1490 612
-1490 620 0 9 1462 618 1485 619 11 1 352 -137 758 -306z m-1695 -893 l782
-325 0 -1098 0 -1097 -800 400 -800 400 0 1030 c0 998 1 1029 19 1022 10 -4
370 -153 799 -332z"/>
<path d="M4420 1910 c-14 -6 -150 -135 -302 -288 l-278 -276 -122 121 c-132
130 -156 143 -235 128 -49 -9 -109 -69 -118 -118 -16 -85 -9 -97 203 -309 167
-167 203 -198 234 -203 91 -17 84 -22 465 358 251 250 356 361 364 385 22 68
-2 140 -63 185 -31 23 -111 32 -148 17z"/>
</g>
</svg>
