<?xml version="1.0" standalone="no"?>
<!DOCTYPE svg PUBLIC "-//W3C//DTD SVG 20010904//EN"
 "http://www.w3.org/TR/2001/REC-SVG-20010904/DTD/svg10.dtd">
<svg version="1.0" xmlns="http://www.w3.org/2000/svg"
 width="512.000000pt" height="512.000000pt" viewBox="0 0 512.000000 512.000000"
 preserveAspectRatio="xMidYMid meet">

<g transform="translate(0.000000,512.000000) scale(0.100000,-0.100000)"
fill="#000000" stroke="none">
<path d="M4785 4950 l-171 -170 -994 -1 -995 -1 -1263 -1274 c-1406 -1418
-1316 -1319 -1316 -1459 -1 -132 -47 -79 966 -1091 1015 -1013 942 -949 1083
-949 136 0 44 -86 1413 1320 l1232 1266 0 1037 0 1037 167 167 c155 155 167
170 167 204 0 46 -40 84 -86 84 -28 0 -54 -23 -203 -170z m-545 -545 l-206
-206 -56 26 c-166 76 -351 43 -479 -84 -170 -171 -170 -431 0 -602 64 -64 139
-102 230 -119 178 -32 371 70 454 240 30 61 32 72 32 175 0 99 -3 117 -29 178
l-29 69 199 199 c109 109 202 199 206 199 5 0 8 -409 8 -910 l0 -909 -1200
-1233 c-959 -986 -1208 -1236 -1239 -1247 -82 -30 -37 -70 -1012 906 -978 979
-929 925 -896 1005 9 21 477 500 1247 1276 l1232 1242 871 0 872 0 -205 -205z
m-370 -321 c17 -3 30 -8 30 -12 0 -3 -40 -47 -89 -97 -49 -50 -93 -103 -96
-117 -14 -55 39 -108 100 -99 11 1 63 45 116 98 l96 95 12 -32 c28 -83 7 -180
-56 -250 -79 -88 -201 -110 -304 -54 -177 96 -182 348 -9 443 69 38 107 43
200 25z"/>
</g>
</svg>
